<?xml version="1.0" encoding="utf-8"?>
<svg viewBox="0 0 500 500" xmlns="http://www.w3.org/2000/svg">
  <ellipse style="fill: rgb(30, 30, 30); stroke: rgb(178, 0, 0); stroke-width: 5px;" cx="247.95" cy="245.48" rx="249.119" ry="249.119"/>
  <path style="stroke: rgb(0, 0, 0); fill: rgb(0, 0, 191); stroke-opacity: 0;" transform="matrix(2.2775800228118896, 0, 0, 2.269695997238159, -837.9240112304688, -510.655517578125)" d="M 463.048 226.357 L 489.297 226.357 L 497.707 256.111 A 80.456 80.456 0 0 1 515.761 263.589 L 542.747 248.496 L 561.308 267.057 L 546.216 294.044 A 80.456 80.456 0 0 1 553.693 312.097 L 583.448 320.508 L 583.448 346.756 L 553.693 355.167 A 80.456 80.456 0 0 1 546.216 373.22 L 561.308 400.207 L 542.747 418.767 L 515.761 403.675 A 80.456 80.456 0 0 1 497.707 411.153 L 489.297 440.907 L 463.048 440.907 L 454.638 411.153 A 80.456 80.456 0 0 1 436.584 403.675 L 409.598 418.767 L 391.037 400.207 L 406.13 373.22 A 80.456 80.456 0 0 1 398.652 355.167 L 368.897 346.756 L 368.897 320.508 L 398.652 312.097 A 80.456 80.456 0 0 1 406.13 294.044 L 391.037 267.057 L 409.598 248.496 L 436.584 263.589 A 80.456 80.456 0 0 1 454.638 256.111 Z M 476.173 279.994 A 53.638 53.638 0 0 0 476.173 387.269 A 53.638 53.638 0 0 0 476.173 279.994"/>
</svg>